<?xml version="1.0" encoding="UTF-8"?>
<svg xmlns="http://www.w3.org/2000/svg" 
     viewBox="0 0 600 244"
     width="600" height="244">
<g transform="translate(0,244) scale(0.025,-0.025)" fill="#ffffff" stroke="none">
  <path d="M4800 9746 c0 -8 -11 -23 -25 -34 -14 -11 -25 -28 -25 -37 0 -9 -9
-19 -20 -22 -11 -3 -20 -10 -20 -16 0 -6 -7 -17 -15 -26 -106 -111 -157 -159
-170 -164 -8 -4 -15 -13 -15 -22 0 -8 -7 -15 -15 -15 -8 0 -19 -9 -25 -20 -6
-11 -17 -20 -25 -20 -8 0 -15 -7 -15 -15 0 -9 -8 -19 -19 -23 -17 -6 -82 -58
-132 -104 -11 -10 -25 -18 -32 -18 -7 0 -33 -20 -59 -45 -26 -25 -52 -45 -58
-45 -5 0 -36 -18 -67 -40 -32 -22 -64 -40 -70 -40 -7 0 -13 -5 -13 -11 0 -5
-15 -16 -34 -24 -19 -8 -37 -19 -40 -24 -4 -5 -19 -12 -35 -16 -16 -3 -35 -13
-42 -21 -6 -8 -19 -14 -29 -14 -9 0 -25 -9 -35 -20 -10 -11 -26 -20 -35 -20
-10 0 -28 -9 -42 -19 -13 -11 -41 -22 -61 -26 -20 -4 -41 -13 -48 -21 -6 -8
-16 -14 -21 -14 -5 0 -28 -8 -51 -19 -23 -10 -58 -22 -77 -26 -19 -4 -42 -13
-50 -20 -8 -7 -36 -16 -62 -20 -26 -4 -53 -13 -59 -21 -6 -8 -26 -14 -43 -14
-17 0 -47 -9 -67 -19 -20 -11 -69 -23 -110 -27 -40 -4 -79 -12 -85 -19 -7 -7
-46 -15 -86 -18 -41 -4 -90 -13 -109 -21 -21 -8 -113 -19 -239 -26 -277 -17
-314 -18 -470 -2 -188 18 -284 14 -288 -13 -3 -19 106 -145 124 -145 3 0 56
-49 117 -109 62 -60 129 -125 150 -144 20 -19 37 -39 37 -46 0 -6 4 -11 10
-11 5 0 36 -27 69 -60 33 -33 62 -60 65 -60 8 0 134 -130 140 -145 3 -8 11
-15 18 -15 7 0 24 -16 38 -35 14 -19 33 -37 43 -40 9 -4 17 -12 17 -20 0 -7
14 -18 30 -24 17 -5 30 -14 30 -20 0 -5 27 -13 61 -17 33 -4 66 -13 74 -20 7
-8 37 -19 67 -25 29 -6 58 -15 63 -19 6 -5 37 -11 70 -15 33 -4 74 -15 90 -24
45 -24 575 -24 620 0 17 9 56 19 89 22 32 3 66 13 75 21 10 9 33 16 53 16 22
0 41 7 53 20 11 12 31 20 50 20 24 0 34 5 38 20 3 14 14 20 31 20 14 0 34 9
43 20 10 11 25 20 35 20 9 0 20 5 23 10 4 6 22 17 41 25 19 8 37 21 40 30 3 8
14 15 24 15 21 0 340 314 340 335 0 8 18 41 40 72 22 32 40 62 40 67 0 5 7 18
17 28 18 20 35 48 56 93 8 17 21 36 30 44 10 7 17 23 17 35 0 12 6 30 14 41
14 21 32 1143 19 1208 -6 30 -63 42 -63 13z"/>
  <path d="M5445 9738 c-22 -63 -17 -1266 4 -1278 12 -6 21 -17 21 -25 0 -16 44
-102 65 -125 7 -8 19 -26 25 -40 6 -14 21 -41 33 -61 12 -20 35 -58 52 -85 16
-27 46 -66 67 -86 21 -21 38 -42 38 -47 0 -5 9 -13 20 -16 11 -3 20 -13 20
-21 0 -8 5 -14 10 -14 6 0 27 -17 48 -37 86 -85 254 -213 280 -213 5 0 15 -6
21 -14 7 -8 27 -18 44 -22 18 -3 40 -15 50 -25 10 -11 31 -19 47 -19 16 0 33
-7 38 -15 4 -9 31 -19 60 -24 29 -4 60 -15 70 -25 11 -9 36 -16 61 -16 23 0
56 -8 74 -17 46 -26 565 -27 612 -2 17 9 61 19 98 23 38 4 85 16 105 26 20 11
55 20 78 20 25 0 47 6 54 15 7 8 28 15 47 15 19 0 36 6 39 14 3 8 18 16 35 20
16 3 29 12 29 20 0 16 214 229 235 234 8 2 15 9 15 17 0 7 11 20 24 28 13 9
56 48 96 86 40 39 76 71 79 71 6 0 61 51 251 234 47 45 93 85 103 89 20 7 23
42 5 54 -7 4 -186 8 -398 9 -333 1 -389 3 -416 17 -18 9 -71 19 -125 23 -52 4
-118 15 -148 26 -30 10 -73 18 -96 18 -25 0 -48 6 -54 14 -7 8 -38 18 -69 22
-31 3 -64 12 -72 19 -8 7 -37 16 -63 20 -26 4 -54 14 -62 21 -7 8 -25 14 -39
14 -29 0 -76 19 -76 31 0 4 -20 11 -44 14 -25 4 -47 13 -50 20 -3 8 -22 17
-43 21 -21 3 -45 12 -53 19 -8 7 -26 16 -40 20 -14 4 -33 16 -43 26 -10 11
-26 19 -37 19 -10 0 -22 5 -25 10 -4 6 -40 26 -81 46 -41 19 -74 39 -74 44 0
4 -14 11 -31 15 -17 4 -33 13 -36 21 -2 7 -14 16 -25 20 -24 7 -90 51 -99 66
-7 10 -38 30 -76 47 -12 6 -28 19 -35 31 -7 11 -18 20 -25 20 -7 0 -18 9 -25
20 -7 11 -19 20 -26 20 -7 0 -15 7 -18 15 -4 8 -14 15 -23 15 -18 0 -384 364
-394 393 -3 9 -11 17 -17 17 -5 0 -10 9 -10 20 0 11 -13 29 -30 42 -16 12 -30
28 -30 35 0 22 -37 14 -45 -9z"/>
  <path d="M17078 8191 c-21 -12 -51 -21 -68 -21 -18 0 -37 -8 -47 -20 -10 -11
-28 -20 -40 -20 -13 0 -28 -9 -35 -20 -7 -11 -23 -20 -35 -20 -13 0 -23 -6
-23 -14 0 -7 -10 -20 -23 -29 -50 -32 -137 -120 -137 -137 0 -11 -4 -21 -10
-25 -12 -7 -62 -116 -85 -185 -14 -42 -19 -98 -23 -243 -5 -187 -5 -187 -36
-182 -43 6 -125 9 -222 7 -96 -2 -150 -49 -125 -109 6 -16 9 -66 7 -118 -7
-163 -5 -164 287 -155 l87 2 0 -813 c0 -496 4 -820 10 -829 14 -22 376 -22
391 0 5 9 8 330 6 823 -2 801 -2 808 18 813 11 2 272 3 580 2 l560 -3 5 -525
c3 -289 9 -531 14 -539 5 -7 12 -47 17 -88 5 -43 15 -83 24 -93 8 -9 15 -30
15 -47 0 -22 6 -32 20 -36 12 -3 20 -14 20 -26 0 -12 8 -29 19 -40 10 -10 20
-23 22 -29 10 -26 125 -142 141 -142 10 0 18 -4 18 -8 0 -11 78 -62 93 -62 7
0 35 -11 62 -25 34 -17 67 -24 105 -25 30 0 68 -7 84 -15 37 -20 172 -20 206
0 14 8 45 14 70 15 25 0 63 9 84 19 21 11 51 23 67 26 16 4 29 10 29 15 0 5
17 17 38 27 56 27 62 358 6 380 -17 6 -74 -22 -87 -43 -4 -7 -33 -18 -65 -25
-31 -6 -66 -18 -77 -25 -29 -20 -238 -20 -255 1 -7 8 -28 17 -47 21 -47 9
-131 93 -168 169 -29 60 -29 60 -30 590 l0 530 373 3 c437 3 392 -18 392 180
0 222 38 202 -389 202 -422 0 -381 -31 -375 275 5 255 13 247 -220 241 -223
-5 -205 19 -208 -274 -3 -237 -3 -237 -53 -239 -169 -5 -1101 -1 -1106 5 -6 8
5 187 19 299 5 43 15 78 25 88 10 9 17 22 17 28 0 17 64 77 82 77 9 0 18 6 21
14 3 8 25 16 54 19 26 3 80 10 120 16 50 8 84 9 110 2 21 -5 64 -13 95 -16 40
-5 65 -14 83 -31 32 -29 111 -26 116 5 29 202 -5 365 -79 376 -20 3 -50 13
-67 22 -51 29 -427 31 -477 4z"/>
  <path d="M23668 8173 c-51 -6 -50 14 -46 -606 2 -295 -1 -537 -5 -537 -4 0
-31 23 -59 50 -28 28 -57 50 -64 50 -7 0 -17 6 -21 13 -11 17 -86 67 -101 67
-7 0 -21 9 -32 20 -11 11 -30 20 -42 20 -12 0 -30 7 -39 16 -11 9 -46 19 -81
23 -35 4 -73 12 -85 19 -34 19 -323 16 -349 -3 -10 -8 -39 -15 -64 -15 -26 0
-62 -9 -83 -20 -20 -11 -46 -20 -57 -20 -24 0 -114 -45 -131 -66 -6 -8 -21
-14 -33 -14 -11 0 -42 -19 -68 -43 -75 -66 -191 -182 -213 -211 -11 -15 -27
-35 -36 -45 -9 -10 -19 -29 -22 -43 -4 -13 -16 -35 -27 -48 -11 -13 -20 -27
-20 -32 0 -6 -9 -21 -20 -35 -11 -14 -20 -38 -20 -53 0 -15 -9 -37 -20 -50
-13 -16 -20 -37 -20 -67 0 -24 -7 -58 -17 -76 -24 -48 -26 -368 -1 -413 9 -16
20 -58 24 -92 3 -34 13 -67 20 -73 8 -6 14 -19 14 -29 0 -9 9 -28 19 -42 11
-13 23 -36 26 -51 4 -14 13 -28 21 -31 8 -3 14 -14 14 -24 0 -10 11 -29 25
-42 14 -13 25 -32 25 -42 0 -10 6 -18 14 -18 8 0 17 -9 21 -20 8 -25 124 -140
142 -140 7 0 13 -9 13 -20 0 -12 7 -20 16 -20 9 0 39 -18 66 -40 28 -22 55
-40 60 -40 6 0 21 -9 35 -20 14 -11 33 -20 41 -20 9 0 23 -7 33 -16 10 -9 32
-20 51 -24 18 -5 51 -15 73 -24 22 -8 61 -15 86 -16 26 0 66 -7 89 -15 55 -20
230 -20 268 -1 15 7 57 16 95 19 37 2 74 10 82 17 8 7 37 17 63 21 26 5 52 15
57 22 6 8 24 16 42 20 31 6 151 81 166 104 4 7 14 13 22 13 21 0 205 180 211
207 4 13 11 27 18 31 15 9 66 89 66 103 0 6 9 22 20 36 11 14 20 32 20 39 0 7
10 33 23 56 22 43 22 43 25 1171 l2 1127 -147 -2 c-82 -1 -165 -3 -185 -5z
m-568 -1263 c15 -13 37 -20 65 -20 24 0 48 -6 54 -14 7 -8 28 -17 47 -21 19
-3 37 -12 40 -20 3 -7 22 -24 42 -38 20 -13 59 -46 85 -73 70 -71 77 -80 77
-89 0 -5 9 -18 20 -30 12 -12 23 -40 27 -61 3 -21 12 -47 20 -56 27 -31 56
-325 35 -351 -5 -7 -13 -37 -17 -67 -4 -30 -16 -66 -26 -79 -11 -13 -19 -30
-19 -37 0 -16 -48 -88 -84 -127 -14 -15 -26 -33 -26 -40 0 -7 -17 -25 -38 -41
-20 -17 -41 -36 -45 -43 -4 -7 -17 -13 -27 -13 -11 0 -27 -8 -37 -19 -10 -10
-34 -21 -55 -25 -20 -4 -38 -13 -41 -20 -4 -9 -28 -17 -64 -21 -32 -3 -74 -13
-93 -21 -56 -23 -301 10 -349 47 -13 11 -30 19 -37 19 -16 0 -87 47 -133 89
-19 17 -38 31 -43 31 -4 0 -8 9 -8 20 0 11 -7 20 -15 20 -9 0 -19 8 -22 18 -4
9 -17 30 -30 45 -13 16 -23 34 -23 42 0 7 -7 15 -15 19 -8 3 -15 15 -15 27 0
12 -9 36 -20 54 -40 65 -43 417 -4 466 7 8 15 29 19 48 4 19 23 56 41 83 19
26 34 52 34 57 0 12 96 111 108 111 5 0 12 7 16 15 3 8 13 15 22 15 9 0 29 11
46 25 16 14 38 25 48 25 9 0 23 6 29 14 6 7 30 17 53 20 23 4 47 11 53 16 31
26 275 26 305 0z"/>
  <path d="M1280 8126 c-5 -14 -5 -83 0 -172 12 -189 -6 -636 -26 -676 -8 -14
-17 -59 -20 -100 -4 -40 -12 -86 -20 -103 -7 -16 -16 -52 -20 -80 -4 -27 -15
-67 -25 -90 -10 -22 -19 -52 -19 -68 0 -15 -9 -44 -20 -64 -11 -21 -20 -46
-20 -57 0 -11 -7 -27 -15 -36 -9 -10 -19 -35 -22 -56 -3 -22 -11 -46 -19 -54
-7 -8 -16 -28 -20 -43 -3 -16 -12 -31 -19 -34 -7 -2 -16 -21 -20 -41 -4 -20
-15 -47 -26 -60 -10 -14 -19 -33 -19 -43 0 -10 -9 -23 -20 -29 -11 -6 -20 -21
-20 -34 0 -13 -7 -29 -15 -36 -8 -7 -15 -18 -15 -25 0 -8 -11 -27 -25 -43 -14
-17 -25 -32 -25 -35 0 -12 -52 -82 -66 -90 -8 -4 -14 -15 -14 -24 0 -9 -18
-38 -40 -64 -22 -26 -40 -51 -40 -56 0 -5 -8 -16 -18 -25 -35 -34 -52 -55 -52
-63 0 -4 -10 -17 -22 -29 -13 -12 -45 -48 -72 -79 -28 -31 -56 -57 -63 -57 -8
0 -16 -7 -20 -15 -3 -9 -39 -48 -80 -88 -41 -40 -93 -91 -116 -114 -22 -24
-44 -43 -48 -43 -4 0 -26 -18 -48 -40 -22 -22 -47 -40 -54 -40 -8 0 -22 -11
-31 -25 -9 -14 -23 -25 -31 -25 -32 0 -17 -47 16 -54 72 -14 1273 -6 1299 9
14 8 36 19 50 25 14 5 32 15 40 20 8 6 26 15 40 21 14 6 32 16 40 24 8 7 29
16 47 20 17 3 37 13 44 21 6 8 17 14 24 14 7 0 24 11 39 25 15 14 34 25 42 25
7 0 14 4 14 10 0 5 15 16 33 23 17 8 38 21 46 30 7 10 19 17 26 17 7 0 15 7
19 15 3 8 12 15 19 15 15 0 217 205 217 220 0 5 6 13 13 17 7 4 19 23 26 41 8
17 17 32 22 32 5 0 14 11 19 25 5 14 14 25 20 25 5 0 10 6 10 14 0 8 11 28 25
44 14 17 25 39 25 50 0 11 6 27 14 34 7 8 17 28 20 45 4 17 16 41 27 54 11 13
19 37 19 57 0 20 6 43 14 51 10 11 18 60 26 141 5 69 15 140 21 158 8 25 7 58
-5 135 -8 56 -17 132 -20 169 -3 37 -12 78 -19 90 -8 13 -18 42 -21 66 -4 24
-13 53 -20 65 -8 12 -18 45 -22 72 -4 28 -13 59 -20 70 -8 11 -14 28 -14 38 0
10 -27 45 -60 79 -33 33 -60 64 -60 69 0 5 -6 9 -14 9 -7 0 -110 96 -228 213
-588 581 -568 564 -588 513z"/>
  <path d="M10768 8043 c-33 -2 -61 -10 -68 -18 -8 -9 -30 -15 -57 -15 -30 0
-53 -7 -70 -20 -14 -11 -38 -20 -53 -20 -15 0 -37 -9 -49 -19 -12 -10 -37 -22
-55 -25 -19 -4 -39 -13 -46 -21 -7 -8 -22 -15 -34 -15 -13 0 -33 -11 -46 -25
-13 -14 -30 -25 -37 -25 -8 0 -16 -7 -19 -15 -4 -8 -13 -15 -22 -15 -8 0 -24
-9 -36 -20 -74 -72 -116 -110 -120 -110 -5 0 -96 -91 -120 -120 -80 -97 -96
-118 -96 -128 0 -6 -11 -23 -25 -38 -14 -15 -25 -33 -25 -41 0 -8 -8 -26 -18
-41 -29 -44 -41 -66 -53 -92 -6 -14 -18 -37 -25 -52 -8 -14 -17 -48 -20 -75
-4 -26 -13 -56 -21 -65 -9 -9 -19 -48 -23 -86 -4 -37 -13 -79 -20 -92 -20 -37
-18 -413 3 -465 8 -22 18 -66 21 -98 2 -32 9 -64 15 -71 6 -7 15 -37 21 -66 6
-30 17 -61 24 -69 8 -9 17 -28 21 -43 4 -15 13 -32 21 -39 7 -6 16 -26 20 -44
3 -19 15 -41 25 -51 10 -9 19 -24 19 -32 0 -8 27 -48 60 -88 33 -40 60 -75 60
-79 0 -3 16 -21 35 -39 19 -19 35 -36 35 -38 0 -10 84 -98 93 -98 6 0 17 -7
26 -15 52 -47 62 -55 67 -55 4 0 17 -11 30 -25 13 -14 32 -25 43 -25 11 0 24
-6 28 -14 9 -15 101 -66 121 -66 7 0 15 -6 18 -14 3 -8 22 -17 42 -21 20 -4
44 -13 53 -21 9 -8 39 -18 67 -23 28 -4 58 -13 65 -20 8 -6 60 -16 116 -21 56
-5 110 -14 121 -20 30 -16 212 -12 253 5 20 8 64 15 99 15 40 0 76 7 102 19
23 10 61 21 85 24 25 3 48 12 53 21 5 9 16 16 24 16 22 0 128 51 137 66 4 7
20 15 36 19 16 3 35 13 42 21 6 8 17 14 23 14 6 0 30 17 53 38 23 21 58 50 77
63 20 13 38 31 41 41 3 9 12 19 20 22 8 3 15 10 15 16 0 6 27 39 60 73 33 34
60 69 60 78 0 9 11 28 25 43 38 41 15 106 -37 106 -10 0 -18 5 -18 10 0 6 -12
16 -27 23 -16 6 -48 27 -72 45 -24 18 -57 36 -72 39 -16 3 -34 12 -40 19 -21
25 -49 16 -64 -20 -8 -18 -21 -36 -30 -39 -8 -4 -15 -11 -15 -16 0 -12 -45
-65 -95 -112 -67 -63 -94 -83 -138 -100 -15 -6 -32 -20 -38 -30 -5 -10 -20
-19 -33 -19 -13 0 -34 -8 -47 -19 -13 -10 -40 -22 -59 -26 -19 -4 -46 -14 -60
-23 -39 -26 -464 -25 -500 1 -13 9 -33 17 -43 17 -10 0 -39 11 -65 25 -26 14
-55 25 -65 25 -11 0 -30 9 -44 20 -14 11 -31 20 -37 20 -50 0 -336 328 -336
384 0 7 -8 24 -18 37 -11 13 -22 38 -26 54 -4 17 -13 37 -21 45 -7 8 -16 44
-20 80 -3 36 -12 71 -18 79 -20 24 -22 359 -3 406 9 21 19 63 23 94 3 31 12
61 20 66 7 6 16 28 20 50 3 22 14 51 25 64 10 13 18 34 18 48 0 13 7 26 15 29
8 4 15 12 15 20 0 7 10 24 23 37 12 14 33 43 47 66 14 22 31 41 38 41 6 0 12
7 12 15 0 8 9 20 20 27 11 7 20 18 20 25 0 6 9 14 19 18 11 3 22 12 25 20 3 8
12 15 20 15 8 0 26 10 40 23 58 52 80 67 102 67 12 0 24 6 27 14 3 7 23 16 45
19 22 4 45 13 51 21 7 8 35 17 62 21 28 4 63 13 77 21 44 23 275 19 364 -6 40
-11 85 -20 100 -20 15 0 31 -7 36 -16 5 -8 27 -18 50 -21 23 -3 49 -14 58 -24
9 -11 25 -19 36 -19 10 0 18 -5 18 -11 0 -5 14 -15 30 -21 17 -5 35 -19 41
-29 5 -10 16 -19 24 -19 8 0 19 -9 25 -20 6 -11 17 -20 25 -20 8 0 15 -7 15
-15 0 -8 9 -19 20 -25 11 -6 20 -14 20 -19 0 -5 16 -26 36 -47 20 -22 42 -51
50 -66 16 -31 45 -36 84 -13 14 7 39 20 55 28 17 8 36 21 44 30 7 10 22 17 32
17 11 0 19 4 19 10 0 5 15 16 34 24 18 8 37 19 40 25 4 6 17 11 28 11 40 0 9
86 -54 152 -10 10 -18 24 -18 32 0 8 -7 16 -15 20 -8 3 -15 10 -15 15 0 6 -10
21 -22 35 -13 13 -28 30 -34 38 -20 24 -117 108 -125 108 -4 0 -12 6 -16 13
-23 37 -260 171 -324 183 -19 4 -44 13 -56 20 -12 7 -41 16 -65 20 -24 4 -69
15 -100 25 -56 19 -284 24 -480 12z"/>
  <path d="M14665 7320 c-38 -3 -83 -12 -98 -18 -16 -7 -45 -12 -65 -12 -20 -1
-55 -8 -77 -16 -22 -9 -54 -19 -72 -24 -18 -4 -39 -15 -48 -24 -9 -9 -25 -16
-36 -16 -10 0 -27 -9 -36 -20 -10 -11 -23 -20 -29 -20 -6 0 -23 -11 -38 -25
-15 -14 -33 -25 -40 -25 -8 0 -16 -7 -20 -15 -3 -8 -12 -15 -19 -15 -16 0
-170 -158 -180 -184 -4 -9 -11 -16 -17 -16 -5 0 -10 -6 -10 -14 0 -8 -11 -28
-25 -44 -14 -17 -25 -34 -25 -40 0 -5 -6 -15 -14 -21 -8 -7 -18 -25 -21 -41
-3 -16 -13 -34 -21 -41 -8 -6 -17 -29 -20 -50 -4 -21 -15 -46 -25 -55 -13 -12
-19 -31 -19 -63 0 -25 -7 -68 -15 -95 -18 -60 -21 -287 -4 -318 7 -12 15 -55
20 -96 5 -42 15 -82 24 -92 8 -9 15 -31 15 -48 0 -20 8 -39 20 -49 11 -10 20
-28 20 -40 0 -13 9 -31 20 -40 11 -10 20 -24 20 -31 0 -8 11 -27 25 -44 14
-16 25 -36 25 -44 0 -8 6 -14 14 -14 8 0 16 -11 20 -24 7 -30 180 -195 217
-208 16 -5 29 -14 29 -19 0 -6 16 -17 35 -25 19 -8 35 -18 35 -23 0 -5 15 -13
33 -16 17 -4 40 -16 50 -26 10 -11 30 -19 45 -19 15 0 37 -6 47 -14 70 -49
518 -50 587 -2 12 9 34 16 49 16 14 0 38 9 52 20 14 11 32 20 40 20 7 0 22 9
32 20 10 11 27 22 39 26 26 8 88 58 155 124 70 69 71 69 71 -75 0 -110 2 -127
18 -133 24 -10 368 -9 379 1 29 29 9 1251 -21 1286 -7 9 -16 35 -19 58 -3 23
-12 49 -20 57 -8 8 -18 31 -21 51 -4 19 -11 35 -15 35 -5 0 -15 15 -22 33 -7
17 -17 37 -21 42 -5 6 -22 28 -38 50 -16 22 -36 47 -45 56 -8 9 -15 23 -15 32
0 10 -8 17 -20 17 -11 0 -20 4 -20 8 0 10 -54 72 -63 72 -3 0 -19 12 -34 26
-35 33 -127 94 -140 94 -6 0 -16 6 -22 14 -17 20 -107 66 -129 66 -9 0 -27 7
-40 15 -12 9 -45 18 -74 21 -29 3 -69 12 -88 19 -41 16 -196 24 -295 15z m219
-404 c18 -7 53 -17 77 -21 24 -4 60 -16 79 -26 19 -11 41 -19 48 -19 7 0 15
-6 18 -14 3 -8 16 -17 28 -20 30 -7 176 -161 176 -185 0 -10 9 -21 20 -24 11
-3 20 -14 20 -24 0 -10 7 -28 14 -39 8 -12 20 -43 27 -70 7 -27 18 -61 25 -76
20 -40 19 -271 -1 -288 -8 -7 -18 -34 -21 -61 -4 -27 -13 -54 -20 -60 -8 -6
-14 -22 -14 -35 0 -13 -11 -35 -25 -50 -14 -15 -25 -31 -25 -36 0 -9 -23 -36
-95 -112 -29 -31 -51 -46 -90 -65 -12 -5 -27 -16 -34 -25 -7 -9 -21 -16 -30
-16 -9 0 -35 -9 -56 -21 -99 -51 -433 -51 -490 0 -11 10 -33 21 -49 25 -60 14
-226 154 -240 203 -4 11 -13 24 -21 27 -8 3 -15 14 -15 25 0 10 -6 21 -14 24
-7 3 -18 26 -25 52 -6 26 -19 59 -29 73 -25 38 -25 365 0 403 9 15 20 43 24
63 3 21 13 40 20 43 8 3 14 11 14 18 0 8 11 27 25 43 14 17 25 35 25 41 0 5 9
15 20 21 11 6 20 16 20 23 0 7 12 23 28 35 83 68 147 112 163 112 9 0 22 7 29
15 7 8 27 15 44 15 17 0 47 9 66 19 44 25 231 29 284 7z"/>
  <path d="M20445 7319 c-138 -29 -192 -43 -206 -55 -8 -8 -25 -14 -37 -14 -12
0 -30 -9 -39 -20 -10 -11 -27 -20 -39 -20 -11 0 -29 -9 -39 -20 -10 -11 -27
-22 -39 -26 -11 -4 -38 -24 -58 -45 -21 -22 -45 -39 -53 -39 -8 0 -15 -7 -15
-15 0 -8 -9 -19 -20 -25 -16 -9 -57 -55 -129 -146 -5 -6 -11 -20 -15 -31 -4
-11 -15 -28 -26 -38 -11 -10 -20 -25 -20 -32 0 -8 -9 -26 -20 -40 -11 -14 -20
-38 -20 -53 0 -15 -9 -35 -20 -45 -14 -13 -20 -31 -20 -60 0 -23 -7 -56 -16
-74 -47 -95 -16 -590 42 -648 6 -6 14 -29 18 -51 3 -22 13 -42 21 -46 8 -3 15
-14 15 -24 0 -11 9 -31 20 -45 11 -14 20 -31 20 -39 0 -7 29 -43 65 -80 36
-37 65 -72 65 -77 0 -6 3 -11 8 -11 7 0 80 -63 128 -109 12 -12 28 -21 37 -21
9 0 19 -5 23 -11 3 -6 22 -17 40 -25 19 -8 34 -18 34 -23 0 -5 13 -12 29 -16
16 -3 35 -13 41 -20 6 -8 33 -17 58 -21 26 -3 57 -13 70 -21 13 -8 67 -19 120
-24 53 -6 116 -14 140 -20 26 -6 58 -6 85 0 23 6 85 14 137 20 52 5 109 16
125 25 17 9 44 16 61 16 17 0 43 9 57 20 14 11 32 20 41 20 8 0 23 8 33 19 10
10 29 22 43 26 31 9 165 116 205 164 17 20 47 54 68 76 20 22 37 45 37 51 0 6
11 23 25 38 38 41 32 86 -13 100 -12 4 -27 16 -32 27 -7 12 -21 19 -39 19 -16
0 -34 7 -41 15 -7 8 -18 15 -25 15 -7 0 -24 11 -39 25 -45 42 -136 20 -136
-33 0 -16 -137 -152 -153 -152 -8 0 -20 -6 -26 -14 -7 -8 -24 -17 -39 -21 -15
-4 -34 -12 -42 -20 -8 -7 -39 -15 -68 -17 -29 -3 -60 -12 -70 -22 -24 -21
-230 -23 -294 -2 -24 8 -58 17 -77 21 -53 11 -185 86 -195 110 -3 8 -12 15
-21 15 -16 0 -64 47 -65 64 0 4 -9 18 -19 30 -61 66 -71 81 -71 98 0 10 -6 29
-14 41 -8 12 -17 38 -21 57 -4 19 -14 44 -21 55 -41 59 -90 55 769 55 626 0
787 3 801 13 32 23 21 428 -12 470 -5 7 -13 33 -16 59 -4 25 -13 52 -21 58 -8
7 -17 27 -21 45 -3 19 -12 36 -19 39 -7 2 -16 18 -20 34 -3 17 -13 33 -21 36
-8 3 -14 11 -14 17 0 7 -20 36 -45 65 -25 28 -45 57 -45 63 0 6 -5 11 -12 11
-7 0 -31 19 -55 43 -70 69 -93 87 -108 87 -8 0 -15 4 -15 10 0 5 -15 16 -34
24 -18 8 -37 19 -40 25 -4 6 -15 11 -24 11 -10 0 -34 9 -53 19 -20 11 -63 25
-95 30 -33 6 -77 18 -99 26 -45 16 -290 19 -360 4z m324 -388 c30 -4 57 -13
59 -19 2 -7 22 -15 44 -18 22 -4 42 -13 45 -20 3 -8 11 -14 19 -14 22 0 184
-169 184 -192 0 -11 9 -31 20 -45 11 -14 20 -36 20 -48 0 -12 7 -39 15 -58 38
-90 88 -83 -562 -82 -365 0 -581 4 -585 10 -12 17 4 99 23 121 11 11 19 33 19
48 0 24 30 74 68 114 6 7 12 17 12 21 0 4 18 20 40 37 22 16 42 37 46 47 3 9
11 17 18 17 7 0 24 8 37 19 13 10 40 22 59 26 19 4 39 14 45 21 16 21 264 30
374 15z"/>
  <path d="M4818 7309 c-10 -5 -18 -19 -18 -30 0 -11 -11 -30 -25 -43 -14 -13
-25 -33 -25 -44 0 -11 -5 -24 -11 -28 -6 -3 -17 -22 -25 -40 -8 -19 -19 -34
-24 -34 -6 0 -10 -9 -10 -20 0 -12 -10 -31 -23 -43 -13 -12 -27 -29 -31 -37
-21 -45 -43 -72 -136 -166 -56 -57 -108 -104 -116 -104 -8 0 -17 -7 -20 -15
-4 -8 -14 -15 -25 -15 -10 0 -23 -9 -29 -19 -5 -11 -23 -22 -39 -26 -16 -3
-32 -12 -34 -20 -3 -7 -24 -16 -46 -20 -23 -4 -41 -10 -41 -15 0 -4 -24 -14
-52 -20 -29 -7 -60 -18 -68 -25 -8 -7 -49 -15 -91 -18 -42 -4 -89 -11 -103
-17 -54 -20 -158 -23 -224 -6 -35 9 -93 20 -130 23 -37 3 -78 11 -92 18 -14 7
-46 16 -72 20 -26 4 -57 16 -69 26 -15 13 -37 19 -69 19 -30 0 -52 6 -60 15
-30 36 -121 9 -92 -28 5 -6 12 -36 16 -66 4 -29 13 -63 20 -75 8 -11 16 -42
20 -69 3 -26 12 -57 20 -70 8 -12 17 -53 21 -92 4 -38 14 -89 22 -112 18 -51
15 -241 -5 -265 -6 -8 -15 -44 -18 -79 -4 -35 -13 -71 -20 -80 -8 -8 -17 -31
-20 -50 -4 -19 -12 -41 -19 -49 -7 -8 -15 -28 -19 -43 -4 -15 -15 -35 -26 -45
-11 -9 -20 -24 -20 -33 0 -9 -7 -19 -15 -23 -8 -3 -15 -11 -15 -18 0 -8 -20
-34 -45 -60 -25 -26 -45 -54 -45 -63 0 -8 -7 -15 -16 -15 -9 0 -35 -19 -59
-42 -23 -24 -54 -52 -69 -63 -15 -11 -35 -28 -44 -37 -9 -10 -24 -18 -33 -18
-9 0 -24 -9 -34 -20 -10 -11 -28 -20 -41 -20 -13 0 -31 -9 -41 -19 -10 -11
-31 -23 -47 -27 -16 -4 -37 -15 -47 -25 -11 -11 -26 -19 -35 -19 -9 0 -22 -7
-28 -16 -7 -8 -30 -18 -53 -21 -82 -11 -101 -84 -29 -108 21 -8 42 -18 45 -24
3 -5 18 -12 33 -16 15 -4 34 -15 44 -26 9 -10 24 -19 31 -19 8 0 26 -9 40 -20
14 -11 34 -20 45 -20 11 0 39 -16 62 -35 24 -19 50 -35 58 -35 8 0 25 -11 38
-25 13 -14 28 -25 33 -25 4 0 26 -18 48 -40 22 -22 44 -40 49 -40 5 0 12 -11
16 -25 3 -14 12 -25 20 -25 8 0 14 -3 14 -8 0 -4 20 -30 45 -59 25 -28 45 -58
45 -66 0 -8 7 -17 14 -20 8 -3 18 -22 21 -41 4 -19 13 -40 20 -46 8 -6 17 -26
20 -43 4 -18 13 -39 20 -47 7 -8 15 -35 19 -59 4 -24 13 -53 21 -64 21 -30 22
-399 1 -439 -8 -14 -17 -46 -21 -70 -4 -24 -13 -53 -21 -66 -8 -13 -18 -45
-21 -73 -3 -27 -14 -58 -23 -69 -15 -17 -20 -39 -32 -135 -3 -17 2 -20 32 -18
66 3 162 23 183 38 12 8 37 15 57 15 19 0 54 9 78 20 97 44 545 42 627 -3 17
-9 42 -17 56 -17 15 0 38 -9 52 -20 14 -11 35 -20 47 -20 12 0 33 -9 47 -20
14 -11 32 -20 40 -20 17 0 93 -56 161 -117 26 -24 50 -43 55 -43 10 0 47 -42
101 -115 25 -33 52 -67 61 -76 8 -9 15 -23 15 -32 0 -9 8 -24 19 -34 10 -10
22 -29 26 -41 4 -13 16 -33 26 -43 10 -10 19 -26 19 -34 0 -9 8 -28 18 -43 28
-43 41 -65 56 -99 25 -55 90 -20 110 60 6 25 36 39 36 17 0 -5 4 -10 9 -10 5
0 6 20 3 45 -3 31 -1 45 7 45 7 0 17 13 22 29 6 16 17 32 25 35 8 3 14 14 14
25 0 11 11 32 25 47 14 15 25 33 25 40 0 7 9 18 20 24 11 6 20 16 20 23 0 7 8
20 18 28 9 9 37 39 62 67 25 29 49 52 54 52 8 0 91 61 128 94 10 9 29 18 43
22 14 3 25 10 25 14 0 4 20 13 44 19 24 6 46 18 50 26 4 10 19 15 50 15 34 0
48 5 55 19 8 14 25 19 74 23 34 3 78 13 97 23 38 20 326 17 339 -3 3 -5 40
-13 81 -17 41 -4 84 -14 95 -21 11 -8 34 -14 52 -14 37 0 85 -16 94 -32 4 -6
32 -13 63 -16 31 -2 61 -11 67 -18 15 -18 43 -18 59 1 15 18 4 109 -16 126 -8
6 -14 28 -14 48 0 20 -8 52 -19 71 -10 19 -22 60 -26 90 -4 30 -12 64 -18 75
-26 50 -25 416 1 448 6 6 13 35 17 62 5 28 16 61 26 74 11 13 19 35 19 49 0
14 7 34 17 44 19 21 36 49 58 96 8 17 19 32 24 32 5 0 20 17 32 38 28 45 146
162 164 162 3 0 23 16 43 36 20 20 52 43 70 50 17 8 32 19 32 24 0 6 8 10 19
10 10 0 29 8 42 19 13 10 38 22 56 25 17 4 37 13 43 21 6 8 24 17 40 20 16 3
34 12 40 20 6 8 24 16 39 20 80 17 106 115 31 115 -11 0 -23 6 -27 14 -4 8
-24 21 -43 30 -19 9 -48 25 -65 35 -51 34 -145 81 -160 81 -7 0 -16 9 -20 19
-3 11 -19 22 -35 26 -15 3 -31 13 -34 21 -3 8 -12 14 -21 14 -8 0 -15 9 -15
20 0 14 -7 20 -22 20 -23 0 -118 79 -118 98 0 5 -7 12 -15 16 -8 3 -15 14 -15
25 0 11 -6 24 -14 28 -18 10 -62 73 -71 102 -3 12 -10 21 -15 21 -5 0 -14 17
-21 37 -6 21 -18 43 -25 50 -6 7 -15 36 -19 65 -4 29 -13 60 -20 68 -41 50
-34 464 9 545 9 17 16 43 16 58 0 15 6 40 14 55 8 15 17 46 21 67 4 22 13 49
20 60 52 84 2 193 -59 126 -11 -12 -37 -21 -73 -25 -32 -4 -64 -13 -73 -20 -8
-7 -41 -16 -73 -20 -32 -3 -73 -14 -90 -24 -46 -24 -503 -23 -541 2 -14 8 -44
18 -68 22 -24 4 -50 12 -58 19 -8 7 -29 16 -47 20 -17 3 -37 13 -43 20 -7 8
-28 17 -47 21 -23 4 -37 13 -40 25 -3 12 -14 19 -28 19 -12 0 -30 9 -40 20
-10 11 -24 20 -32 20 -7 0 -13 4 -13 10 0 5 -13 16 -30 25 -16 9 -30 22 -30
30 0 8 -5 15 -11 15 -9 0 -29 20 -124 121 -8 9 -15 20 -15 26 0 6 -7 16 -16
24 -15 12 -36 47 -69 117 -8 17 -20 32 -25 32 -6 0 -10 7 -10 16 0 22 -41 95
-63 114 -10 8 -21 34 -24 58 -6 45 -40 58 -85 31z m148 -1089 c16 -22 37 -42
47 -46 9 -3 17 -14 17 -25 0 -12 7 -19 18 -19 10 0 25 -8 34 -17 8 -10 28 -27
43 -38 15 -11 38 -30 51 -42 14 -13 30 -23 37 -23 7 0 21 -6 32 -13 11 -7 39
-19 63 -26 23 -6 42 -16 42 -21 0 -5 21 -12 48 -15 26 -3 63 -13 82 -22 25
-12 74 -18 173 -21 153 -5 162 -10 97 -58 -22 -16 -40 -34 -40 -41 0 -6 -9
-15 -20 -18 -11 -3 -20 -13 -20 -21 0 -8 -11 -19 -24 -24 -13 -5 -36 -25 -51
-45 -15 -19 -39 -38 -54 -41 -14 -4 -33 -13 -41 -20 -34 -29 -303 -29 -333 0
-7 7 -24 16 -38 19 -14 4 -36 16 -49 27 -13 11 -29 20 -36 20 -7 0 -15 9 -19
19 -3 11 -12 22 -20 25 -8 3 -15 12 -15 20 0 9 -9 20 -19 26 -11 5 -22 23 -26
39 -3 16 -13 32 -21 35 -11 4 -14 41 -14 206 0 222 3 231 56 160z m-206 -159
c0 -193 -3 -221 -24 -221 -6 0 -17 -12 -24 -27 -27 -61 -44 -83 -63 -83 -10 0
-19 -7 -19 -16 0 -8 -13 -20 -29 -25 -16 -6 -32 -16 -34 -23 -3 -8 -26 -17
-50 -20 -25 -4 -51 -14 -57 -21 -17 -21 -217 -21 -243 0 -11 7 -36 17 -58 20
-40 7 -99 50 -99 72 0 7 -7 13 -15 13 -9 0 -18 7 -21 15 -4 8 -11 15 -16 15
-15 0 -148 142 -148 157 0 11 20 12 93 7 116 -7 306 9 338 29 13 8 38 18 56
22 17 3 37 12 43 20 6 7 26 16 44 19 19 4 39 13 46 21 7 8 18 15 24 15 7 0 22
11 34 25 12 14 28 25 36 25 8 0 16 6 19 14 8 19 58 30 68 14 4 -7 12 -9 16 -4
4 5 2 11 -4 13 -22 8 -14 31 24 73 62 67 63 63 63 -149z m-973 -271 c3 -10 14
-22 24 -25 10 -4 19 -10 19 -15 0 -10 47 -60 57 -60 3 0 31 -27 63 -60 32 -33
62 -60 66 -60 33 0 63 -235 39 -300 -9 -25 -20 -59 -23 -77 -4 -17 -23 -49
-43 -72 -20 -22 -39 -47 -42 -55 -4 -9 -13 -16 -20 -16 -8 0 -22 -9 -32 -20
-10 -11 -27 -23 -39 -26 -11 -4 -26 -14 -32 -23 -12 -16 -329 -29 -401 -16
-37 7 -45 34 -13 42 11 3 20 12 20 19 0 8 8 17 18 21 21 8 132 124 132 139 0
6 11 23 25 38 14 15 25 32 25 37 0 6 9 22 20 36 11 14 20 34 20 43 0 10 7 23
15 30 7 6 17 33 21 58 4 26 13 60 22 77 11 22 15 66 16 167 1 127 2 138 19
138 11 0 21 -9 24 -20z m2129 -148 c1 -96 6 -147 17 -172 8 -19 18 -56 21 -82
4 -25 14 -52 21 -58 8 -7 15 -21 15 -31 0 -11 9 -27 20 -36 11 -10 20 -25 20
-35 0 -9 8 -25 18 -35 10 -10 31 -37 46 -61 34 -50 136 -156 160 -165 9 -4 16
-13 16 -22 0 -26 -383 -22 -417 5 -14 11 -32 20 -39 20 -8 0 -22 7 -31 15 -10
9 -35 29 -55 46 -41 33 -98 111 -98 133 0 7 -9 25 -20 39 -25 32 -30 216 -6
236 8 7 17 28 21 48 7 40 29 68 119 152 33 31 79 75 103 99 66 64 68 61 69
-96z m-2126 -847 c7 -8 27 -17 45 -21 19 -3 36 -12 39 -20 3 -8 10 -14 17 -14
10 0 69 -57 69 -67 0 -3 13 -22 30 -43 71 -90 82 -375 16 -412 -9 -5 -16 -15
-16 -22 0 -8 -12 -21 -26 -31 -24 -16 -55 -44 -185 -170 -62 -61 -103 -38 -55
31 12 17 13 35 5 100 -5 43 -13 113 -18 155 -5 50 -13 83 -24 94 -9 9 -17 22
-17 28 0 24 -86 178 -125 223 -94 108 -111 127 -137 140 -16 8 -28 21 -28 29
0 22 392 22 410 0z m2214 -12 c4 -5 64 -6 132 -4 152 4 152 6 32 -113 -99 -98
-160 -175 -173 -216 -4 -14 -13 -32 -20 -40 -7 -8 -18 -31 -23 -50 -6 -19 -18
-55 -27 -79 -12 -33 -16 -82 -16 -198 -1 -144 -2 -153 -20 -153 -10 0 -19 7
-19 15 0 9 -7 18 -16 22 -15 6 -43 33 -153 151 -27 28 -54 52 -60 52 -6 0 -11
7 -11 16 0 9 -10 30 -22 47 -33 46 -32 277 1 308 11 11 21 29 21 40 0 19 27
56 70 96 42 39 74 63 83 63 6 0 18 7 27 15 28 25 176 46 194 28z m-1570 -652
c33 -4 62 -13 64 -19 2 -7 12 -12 22 -12 10 0 31 -10 47 -23 15 -13 36 -26 46
-30 9 -3 17 -12 17 -19 0 -7 21 -35 45 -62 43 -47 57 -87 35 -101 -17 -10 -11
-25 10 -25 17 0 20 -7 21 -47 3 -102 0 -200 -6 -245 -6 -34 -4 -48 4 -48 6 0
11 -7 11 -15 0 -8 -7 -15 -15 -15 -8 0 -15 7 -15 15 0 8 -4 15 -10 15 -5 0
-35 28 -67 61 -103 109 -247 209 -302 209 -5 0 -17 7 -25 16 -9 8 -39 19 -67
23 -28 5 -54 13 -58 20 -5 7 -67 13 -174 18 -92 3 -167 10 -167 15 0 19 33 58
50 58 10 0 34 21 54 48 20 26 55 60 76 76 22 17 40 33 40 38 0 4 7 8 15 8 8 0
19 9 25 20 14 26 192 37 324 21z m1016 -16 c8 -8 32 -16 52 -20 27 -5 43 -17
64 -46 15 -21 35 -39 45 -39 10 0 21 -9 24 -20 3 -11 13 -20 21 -20 8 0 14 -9
14 -20 0 -11 4 -20 8 -20 5 0 20 -9 33 -20 13 -11 39 -33 56 -48 39 -32 44
-58 11 -47 -66 19 -100 25 -168 25 -42 0 -80 -4 -86 -10 -5 -5 -45 -13 -87
-16 -54 -5 -84 -13 -99 -25 -11 -11 -31 -19 -43 -19 -12 0 -33 -8 -46 -19 -13
-10 -38 -22 -56 -25 -17 -4 -34 -14 -37 -22 -3 -8 -13 -14 -22 -14 -17 0 -116
-79 -149 -119 -10 -14 -34 -39 -52 -58 -18 -18 -33 -37 -33 -43 0 -5 -6 -10
-14 -10 -24 0 -17 391 7 417 9 11 17 27 17 35 0 9 7 18 15 22 8 3 15 11 15 18
0 17 91 108 107 108 8 0 16 6 19 14 3 8 19 17 36 20 18 3 39 13 47 20 30 27
270 27 301 1z"/>
  <path d="M13127 7304 c-3 -4 -40 -10 -82 -14 -47 -5 -82 -14 -94 -24 -9 -9
-31 -16 -48 -16 -18 0 -41 -10 -57 -25 -15 -14 -35 -25 -45 -25 -10 0 -26 -9
-36 -20 -10 -11 -23 -20 -29 -20 -6 0 -21 -10 -34 -22 -84 -86 -102 -106 -102
-115 0 -5 -11 -20 -25 -33 -14 -13 -25 -30 -25 -38 0 -7 -9 -25 -20 -39 -11
-14 -20 -34 -20 -43 0 -10 -6 -23 -14 -29 -8 -7 -18 -31 -21 -54 -4 -23 -15
-53 -24 -66 -25 -39 -30 -1458 -5 -1468 39 -15 364 -9 374 7 6 9 10 265 10
645 0 611 1 632 20 670 11 22 20 56 20 77 0 21 4 38 10 38 5 0 16 16 24 35 8
19 20 35 26 35 6 0 15 11 20 25 5 14 16 25 24 25 7 0 16 8 19 19 2 10 17 21
33 25 16 4 36 14 45 22 46 41 362 35 420 -9 60 -44 124 -21 113 41 -4 19 -1
38 6 47 7 8 9 23 4 37 -4 13 -8 72 -8 132 -1 109 -1 109 -46 121 -25 7 -65 20
-90 29 -72 24 -326 47 -343 30z"/>
  <path d="M20403 4830 c-10 -11 -25 -20 -35 -20 -10 0 -18 -5 -18 -11 0 -6 -9
-22 -20 -36 -11 -14 -20 -34 -20 -44 0 -11 -9 -36 -20 -56 -11 -21 -20 -52
-20 -70 0 -17 -7 -38 -15 -47 -8 -8 -18 -36 -21 -63 -4 -26 -13 -55 -21 -64
-7 -9 -18 -40 -22 -69 -5 -29 -13 -55 -20 -59 -6 -4 -14 -29 -17 -57 -4 -27
-12 -56 -19 -64 -48 -58 -23 -120 47 -120 66 0 73 5 87 57 6 23 15 44 20 47 5
3 11 23 15 45 7 43 31 59 63 43 10 -5 73 -7 141 -6 122 3 122 3 122 -32 0 -19
10 -54 22 -77 12 -23 24 -49 28 -57 8 -17 58 -24 107 -15 37 7 46 45 19 88 -7
12 -17 41 -20 65 -4 24 -13 53 -20 65 -8 12 -17 40 -21 61 -3 21 -13 48 -20
60 -7 12 -17 44 -21 71 -4 28 -12 59 -19 70 -7 11 -16 40 -19 63 -4 24 -13 51
-21 59 -8 8 -15 26 -15 41 0 103 -169 200 -227 132z m77 -161 c0 -6 7 -17 15
-25 8 -8 17 -37 21 -64 4 -27 13 -55 20 -61 14 -12 18 -76 8 -116 -9 -33 -184
-36 -184 -4 0 11 4 22 9 25 5 3 12 25 15 50 4 24 16 61 26 82 11 21 20 52 20
69 0 33 15 55 37 55 7 0 13 -5 13 -11z"/>
  <path d="M15483 4723 c-19 -2 -37 -13 -43 -24 -18 -33 -9 -2308 9 -2339 8 -14
18 -49 22 -78 4 -30 15 -62 23 -71 9 -10 16 -27 16 -38 0 -11 8 -31 19 -44 10
-13 22 -35 26 -49 10 -31 67 -109 118 -160 20 -21 37 -46 37 -54 0 -9 7 -16
16 -16 9 0 32 -16 51 -37 43 -46 143 -123 158 -123 7 0 20 -9 30 -20 10 -11
27 -20 37 -20 11 0 31 -9 45 -20 14 -11 35 -20 46 -20 11 0 28 -7 37 -15 10
-9 41 -18 71 -22 30 -3 65 -13 78 -22 35 -23 416 -23 451 0 14 9 49 19 78 22
29 3 62 13 74 22 13 8 33 15 45 15 13 0 31 9 40 20 10 11 27 20 39 20 12 0 28
7 35 17 8 9 26 21 42 28 57 24 307 265 307 296 0 10 7 19 15 19 8 0 15 6 15
14 0 8 11 28 25 44 14 17 25 36 25 43 0 8 9 28 20 44 11 17 20 40 20 52 0 12
7 28 15 36 8 8 17 35 21 59 3 23 13 63 22 88 24 64 24 370 0 415 -8 17 -18 56
-21 89 -3 32 -13 66 -21 75 -9 10 -16 31 -16 47 0 17 -8 37 -20 47 -11 9 -20
26 -20 36 0 11 -7 27 -16 36 -25 25 -64 84 -64 98 0 29 -221 237 -267 251 -13
4 -23 12 -23 17 0 8 -40 32 -100 59 -14 7 -42 20 -62 31 -20 10 -48 19 -62 19
-13 0 -31 7 -39 15 -13 13 -151 29 -312 37 -61 3 -260 -23 -275 -36 -8 -8 -34
-17 -57 -21 -23 -3 -44 -12 -46 -19 -3 -8 -21 -16 -40 -20 -19 -4 -40 -13 -47
-21 -7 -8 -19 -15 -26 -15 -8 0 -19 -9 -26 -20 -7 -11 -23 -20 -35 -20 -14 0
-23 -6 -23 -15 0 -9 -10 -19 -22 -24 -13 -5 -32 -18 -42 -30 -11 -11 -25 -21
-33 -21 -15 0 -14 -47 -13 730 1 472 -1 558 -14 575 -14 20 -241 32 -343 18z
m1174 -1469 c34 -3 67 -12 74 -20 6 -8 19 -14 28 -14 9 0 27 -7 41 -15 14 -7
40 -21 58 -29 18 -8 35 -22 38 -31 3 -8 17 -15 30 -15 14 0 24 -6 24 -15 0 -8
9 -19 20 -25 11 -6 20 -15 20 -19 0 -5 13 -23 29 -40 15 -17 36 -46 45 -64 8
-19 22 -40 30 -46 8 -7 18 -26 22 -44 3 -17 13 -37 20 -45 8 -7 14 -28 14 -45
1 -18 7 -59 15 -92 19 -77 19 -120 0 -192 -8 -31 -15 -74 -15 -95 0 -25 -5
-41 -15 -44 -8 -4 -15 -19 -15 -35 0 -16 -11 -39 -25 -55 -14 -15 -25 -33 -25
-40 0 -8 -8 -22 -17 -32 -10 -10 -36 -39 -58 -65 -38 -46 -160 -137 -182 -137
-6 0 -13 -6 -16 -14 -3 -8 -25 -17 -49 -21 -24 -4 -56 -14 -73 -23 -51 -27
-307 -22 -345 6 -16 12 -43 22 -60 22 -18 0 -49 14 -80 35 -27 19 -55 35 -61
35 -19 0 -179 169 -179 190 0 11 -9 24 -20 30 -11 6 -20 16 -20 23 0 7 -8 28
-18 47 -11 19 -22 61 -25 93 -3 32 -12 66 -19 74 -16 20 -15 160 1 191 6 11
15 51 21 89 5 37 14 69 19 71 6 2 13 19 17 37 3 19 13 40 21 46 8 7 20 27 28
46 8 18 19 33 24 33 6 0 11 7 11 15 0 7 6 18 13 22 8 4 16 16 20 26 4 9 17 21
29 26 13 5 39 23 58 40 19 18 44 34 56 37 13 3 25 12 27 18 3 7 20 16 38 20
18 3 40 13 49 21 11 10 53 18 121 24 102 9 131 8 256 -5z"/>
  <path d="M27 4643 c-30 -5 -42 -63 -12 -63 8 0 19 -9 25 -19 5 -11 19 -23 31
-26 12 -4 28 -13 37 -21 55 -47 82 -75 82 -84 0 -5 6 -10 14 -10 13 0 236
-215 236 -227 0 -2 16 -19 35 -39 19 -19 35 -41 35 -49 0 -8 6 -18 14 -22 24
-14 106 -119 106 -136 0 -9 9 -19 20 -22 11 -3 20 -12 20 -19 0 -7 11 -25 25
-40 14 -15 25 -33 25 -40 0 -8 7 -16 15 -20 8 -3 15 -12 15 -19 0 -8 11 -26
25 -41 14 -15 25 -34 25 -42 0 -7 9 -23 20 -34 11 -11 20 -27 20 -36 0 -9 9
-27 20 -41 11 -14 20 -31 20 -38 0 -7 6 -18 14 -24 8 -7 18 -25 21 -41 3 -16
13 -34 20 -40 8 -7 17 -28 21 -49 4 -20 15 -47 25 -60 11 -13 19 -34 19 -47 0
-12 5 -26 10 -29 6 -3 15 -26 21 -50 6 -25 17 -50 25 -56 8 -6 14 -26 14 -43
0 -17 9 -49 19 -72 10 -23 22 -61 26 -85 4 -24 13 -56 21 -70 7 -15 16 -57 20
-95 4 -38 13 -78 19 -89 7 -11 16 -67 20 -125 3 -58 13 -124 21 -148 17 -52
20 -457 4 -512 -15 -50 -30 -183 -23 -209 10 -39 113 -4 113 39 0 6 8 14 18
17 17 7 157 138 283 266 37 37 71 67 75 67 5 0 25 16 44 35 19 19 37 35 41 35
4 0 11 9 14 20 3 11 12 20 18 20 16 1 62 42 70 63 3 9 11 17 18 17 6 0 39 28
73 62 35 35 98 96 141 137 71 67 78 77 83 120 3 25 13 57 23 70 11 13 19 38
19 55 0 17 7 39 15 50 8 10 17 39 21 65 3 25 13 56 20 68 19 30 48 330 39 408
-3 33 -10 98 -15 145 -4 47 -15 99 -24 115 -9 17 -16 41 -16 55 0 14 -7 35
-14 46 -8 12 -20 43 -27 70 -7 27 -18 52 -25 57 -7 4 -15 20 -19 36 -3 16 -13
35 -21 42 -8 6 -14 18 -14 25 0 8 -9 22 -20 31 -11 10 -20 23 -20 30 0 7 -9
21 -20 30 -11 10 -20 22 -20 28 0 7 -11 22 -25 35 -14 13 -25 28 -25 35 0 6
-8 18 -17 27 -10 8 -27 27 -38 41 -11 15 -26 26 -33 27 -7 0 -17 11 -22 25 -5
14 -15 25 -23 25 -7 0 -42 27 -77 60 -36 33 -68 60 -72 60 -4 0 -13 6 -20 13
-11 11 -49 35 -113 75 -11 7 -31 17 -45 22 -14 6 -32 14 -40 20 -8 5 -29 16
-46 24 -17 8 -34 19 -38 24 -3 6 -20 13 -37 17 -17 4 -33 13 -36 21 -3 8 -13
14 -23 14 -9 0 -28 8 -41 19 -23 18 -1175 40 -1272 24z"/>
  <path d="M21095 4643 c-16 -2 -38 -11 -49 -19 -11 -8 -26 -14 -33 -14 -17 0
-103 -81 -103 -97 0 -6 -7 -16 -15 -20 -8 -5 -22 -40 -30 -78 -9 -39 -19 -80
-22 -93 -3 -13 1 -30 10 -40 8 -9 18 -31 21 -48 6 -28 70 -102 137 -158 37
-32 230 -37 255 -7 28 32 58 28 49 -6 -3 -16 -13 -35 -21 -44 -8 -8 -14 -20
-14 -26 0 -32 -158 -74 -180 -48 -7 8 -23 15 -36 15 -14 0 -30 10 -40 25 -32
50 -154 25 -154 -31 0 -82 248 -198 334 -156 11 6 40 15 63 19 56 10 162 97
162 132 1 14 9 33 19 44 15 17 17 44 17 236 0 194 -2 219 -17 235 -10 10 -18
21 -18 26 0 16 -106 120 -122 120 -9 0 -24 7 -33 16 -17 17 -120 27 -180 17z
m178 -191 c44 -43 57 -167 19 -194 -10 -7 -21 -20 -24 -30 -27 -71 -248 -25
-248 52 0 11 -8 32 -17 46 -18 29 5 89 54 140 46 47 159 40 216 -14z"/>
  <path d="M21744 4641 c-12 -5 -25 -14 -29 -20 -3 -6 -14 -11 -23 -11 -19 0
-102 -78 -102 -97 0 -6 -7 -16 -16 -21 -27 -15 -38 -170 -19 -268 5 -24 108
-134 126 -134 7 0 22 -9 33 -19 31 -28 286 -36 286 -8 0 6 23 32 50 56 40 36
50 51 50 77 0 60 -102 81 -137 28 -8 -13 -24 -24 -34 -24 -11 0 -19 -4 -19 -9
0 -17 -81 -22 -106 -6 -13 8 -30 15 -38 15 -17 0 -66 56 -66 76 0 12 33 14
193 14 105 0 199 4 207 10 24 15 15 171 -10 189 -11 7 -20 21 -20 29 0 17 -75
92 -93 92 -6 0 -19 8 -29 17 -21 19 -168 29 -204 14z m188 -168 c57 -55 44
-63 -102 -63 -146 0 -155 5 -97 59 46 44 155 46 199 4z"/>
  <path d="M22397 4643 c-16 -2 -31 -11 -34 -19 -3 -8 -12 -14 -20 -14 -20 0
-99 -81 -108 -111 -4 -13 -14 -31 -21 -40 -10 -11 -16 -64 -20 -195 -8 -209
-8 -209 83 -209 72 0 73 2 71 190 -2 161 -2 161 30 202 59 72 222 62 222 -15
0 -7 7 -20 15 -28 12 -13 15 -46 15 -174 0 -153 1 -160 22 -171 21 -11 114 -6
127 7 14 13 3 341 -12 365 -8 13 -17 35 -20 49 -6 24 -89 120 -104 120 -4 0
-17 10 -31 23 -24 22 -137 33 -215 20z"/>
  <path d="M23083 4643 c-23 -2 -47 -11 -53 -19 -7 -7 -17 -14 -22 -14 -31 0
-138 -121 -138 -155 0 -12 -9 -34 -21 -49 -16 -20 -19 -34 -14 -59 12 -57 46
-152 61 -168 8 -8 14 -23 14 -32 0 -10 8 -17 19 -17 10 0 21 -7 25 -15 3 -8
12 -15 20 -15 8 0 21 -9 29 -20 34 -48 249 -47 293 1 9 11 24 19 32 19 32 0
79 91 65 127 -12 32 -115 39 -127 8 -13 -34 -115 -65 -154 -47 -9 5 -30 15
-47 23 -17 9 -34 27 -40 44 -5 17 -15 34 -22 38 -35 22 1 134 59 182 50 43
160 31 198 -21 46 -61 130 -33 130 44 0 35 -67 112 -98 112 -8 0 -23 6 -31 14
-18 16 -112 26 -178 19z"/>
  <path d="M23482 4623 c-17 -42 -8 -380 11 -400 9 -11 17 -31 17 -45 0 -16 12
-35 36 -54 19 -16 45 -38 57 -49 30 -27 215 -36 236 -11 25 30 43 20 36 -21
-13 -75 -161 -150 -199 -101 -6 7 -22 19 -36 25 -14 7 -37 22 -51 33 -44 36
-106 7 -116 -54 -5 -32 -3 -37 21 -46 14 -5 26 -16 26 -25 0 -8 11 -17 25 -21
14 -3 29 -13 34 -21 25 -46 272 -45 319 1 9 9 30 26 46 38 54 40 56 57 56 428
0 340 0 340 -42 340 -78 -1 -79 -4 -82 -211 -3 -182 -3 -182 -30 -206 -36 -31
-172 -35 -183 -5 -4 9 -13 22 -21 28 -11 8 -15 48 -16 182 -3 203 -7 212 -88
212 -37 0 -50 -4 -56 -17z"/>
  <path d="M9553 4353 c-23 -19 -12 -120 23 -213 7 -19 16 -62 19 -95 4 -33 11
-65 16 -71 5 -6 14 -46 20 -89 6 -43 16 -87 24 -99 7 -12 15 -54 19 -94 3 -41
12 -86 20 -100 7 -15 16 -56 20 -92 4 -36 13 -74 20 -85 7 -11 16 -53 20 -93
3 -41 12 -84 18 -95 7 -12 15 -55 18 -94 4 -47 13 -79 23 -91 10 -11 17 -35
17 -60 0 -23 9 -68 19 -99 11 -32 22 -87 25 -122 3 -36 11 -68 16 -71 5 -3 15
-44 21 -91 6 -46 15 -93 21 -103 6 -11 14 -50 19 -88 5 -37 15 -80 23 -95 7
-16 17 -62 21 -103 4 -41 13 -82 20 -90 7 -8 15 -45 18 -81 3 -36 13 -81 21
-100 8 -19 18 -55 21 -81 3 -25 13 -52 20 -58 8 -7 15 -21 15 -31 0 -10 8 -26
19 -36 10 -10 22 -28 25 -40 4 -13 11 -23 15 -23 4 0 29 -20 56 -45 27 -24 63
-47 79 -51 17 -3 39 -14 50 -23 32 -28 251 -30 259 -2 4 16 13 21 36 21 19 0
38 8 48 20 10 11 22 20 27 20 23 0 146 155 146 185 0 11 6 30 14 41 8 11 18
49 22 85 4 35 15 80 25 99 11 20 19 55 19 85 0 27 7 64 16 80 9 17 18 55 20
85 3 30 12 69 20 85 8 17 21 66 30 110 32 167 40 201 52 223 7 12 15 52 19 90
3 37 12 79 20 94 7 15 16 56 20 90 3 35 14 79 25 98 10 19 18 55 18 80 0 25 7
55 15 66 8 12 17 52 21 90 4 38 13 81 20 95 7 14 16 50 20 80 4 30 12 65 19
79 7 14 15 53 19 88 4 34 16 81 26 105 11 23 20 64 20 93 0 28 6 59 15 70 8
10 15 29 15 42 0 12 6 22 13 22 15 0 37 -68 37 -117 0 -21 9 -53 20 -71 13
-20 20 -50 20 -80 0 -27 8 -64 19 -85 11 -21 22 -66 26 -100 4 -34 13 -69 20
-77 7 -8 15 -44 19 -79 3 -35 11 -70 16 -76 6 -7 15 -42 21 -77 5 -34 16 -76
23 -93 8 -16 17 -57 21 -90 4 -33 13 -71 20 -85 7 -14 16 -52 20 -85 3 -33 12
-69 19 -80 7 -11 16 -44 20 -74 4 -29 13 -63 20 -75 8 -11 17 -52 21 -90 4
-39 13 -79 20 -90 7 -12 15 -46 18 -78 3 -31 12 -67 20 -80 8 -12 18 -52 22
-88 4 -35 13 -74 20 -85 7 -11 15 -46 18 -77 3 -33 12 -65 21 -74 11 -10 16
-34 16 -72 0 -46 4 -60 20 -70 11 -7 20 -20 20 -31 0 -10 11 -30 25 -45 14
-15 25 -31 25 -37 0 -10 76 -89 87 -89 4 0 17 -10 30 -22 85 -80 375 -80 426
-1 4 7 14 13 21 13 8 0 16 9 19 20 3 12 14 20 26 20 14 0 21 6 21 20 0 11 7
23 15 26 8 4 15 12 15 20 0 7 9 21 19 31 25 23 50 90 66 178 7 39 20 90 29
114 9 24 16 63 16 88 0 24 6 59 14 78 8 19 18 67 21 107 4 40 13 83 21 94 7
12 16 57 20 100 3 44 12 89 20 100 7 12 16 57 20 100 3 44 12 88 19 100 8 12
17 54 20 95 4 41 13 86 20 101 7 16 17 58 20 95 4 38 13 82 21 98 7 17 18 67
23 113 5 45 13 88 19 95 5 6 13 46 17 87 4 41 13 87 20 101 8 14 17 54 21 90
4 35 13 81 20 102 7 20 16 72 20 115 3 42 13 88 22 101 8 14 17 57 20 95 2 39
11 81 18 94 8 12 18 52 21 87 8 82 9 82 -210 86 -203 5 -215 -1 -224 -112 -3
-35 -11 -75 -18 -89 -7 -14 -16 -61 -20 -105 -4 -44 -13 -93 -20 -110 -8 -16
-17 -59 -20 -94 -4 -35 -13 -78 -20 -95 -7 -17 -18 -70 -24 -118 -5 -49 -14
-96 -20 -105 -5 -10 -12 -54 -16 -98 -4 -44 -14 -91 -22 -104 -9 -13 -17 -58
-20 -105 -3 -45 -12 -91 -20 -104 -8 -13 -17 -58 -20 -100 -3 -43 -11 -86 -18
-98 -7 -11 -17 -59 -20 -105 -4 -46 -13 -95 -20 -109 -7 -14 -16 -59 -20 -100
-4 -41 -14 -90 -21 -109 -8 -19 -18 -68 -23 -111 -5 -42 -13 -85 -19 -96 -6
-11 -14 -53 -17 -94 -4 -41 -14 -90 -21 -109 -8 -18 -14 -41 -14 -50 0 -112
-80 -131 -96 -22 -3 25 -12 53 -19 61 -7 8 -16 44 -19 80 -4 36 -13 72 -20 80
-8 8 -16 47 -20 85 -4 39 -13 79 -20 90 -7 11 -15 45 -19 77 -3 31 -12 67 -20
80 -8 12 -17 49 -20 81 -3 32 -10 64 -16 71 -6 7 -15 41 -20 77 -5 35 -16 80
-24 99 -8 19 -18 59 -21 89 -4 30 -13 69 -20 86 -8 18 -17 61 -21 96 -4 35
-13 75 -20 89 -7 14 -16 50 -20 80 -4 30 -13 66 -20 80 -7 14 -15 51 -18 84
-3 32 -12 65 -20 75 -8 9 -18 45 -21 80 -4 36 -13 76 -20 90 -8 14 -16 47 -20
73 -4 26 -14 61 -23 78 -9 18 -15 59 -15 100 -1 58 -4 69 -19 73 -13 4 -19 14
-19 36 0 18 -9 40 -20 51 -11 11 -20 26 -20 33 0 21 -111 127 -134 127 -7 0
-26 10 -41 22 -36 28 -214 38 -255 14 -14 -8 -38 -21 -55 -29 -30 -14 -115
-88 -115 -100 0 -7 -43 -74 -61 -95 -6 -7 -14 -32 -17 -55 -3 -23 -11 -51 -18
-62 -6 -11 -15 -49 -19 -85 -4 -36 -13 -76 -20 -90 -7 -14 -16 -52 -20 -85 -4
-33 -13 -75 -20 -93 -8 -17 -17 -60 -21 -95 -4 -34 -13 -71 -20 -83 -8 -11
-17 -49 -20 -85 -4 -35 -12 -71 -20 -79 -7 -8 -16 -44 -19 -80 -4 -36 -14 -78
-22 -95 -8 -16 -17 -57 -20 -90 -3 -33 -12 -67 -19 -76 -8 -8 -17 -44 -20 -80
-3 -35 -14 -85 -25 -111 -10 -26 -19 -66 -19 -90 0 -24 -7 -56 -15 -72 -8 -16
-18 -54 -21 -85 -4 -31 -12 -65 -19 -76 -7 -11 -15 -51 -20 -89 -4 -39 -16
-86 -26 -105 -12 -22 -19 -56 -19 -87 0 -32 -5 -56 -14 -63 -8 -7 -17 -40 -21
-74 -9 -83 -63 -142 -82 -89 -3 9 -14 35 -23 57 -10 22 -21 69 -24 104 -4 35
-13 73 -20 85 -8 11 -16 54 -20 94 -3 40 -13 83 -20 95 -8 12 -17 58 -21 102
-4 44 -14 95 -21 114 -8 18 -14 54 -14 80 0 25 -9 64 -19 86 -10 22 -21 69
-25 104 -4 36 -13 76 -20 90 -8 14 -17 60 -20 101 -4 41 -13 84 -20 95 -7 11
-17 52 -21 90 -4 39 -12 79 -17 90 -6 10 -14 53 -19 95 -4 41 -14 89 -23 105
-9 17 -16 44 -16 60 0 17 -7 55 -15 85 -9 30 -20 86 -26 125 -6 38 -16 81 -23
95 -7 14 -16 57 -19 97 -3 39 -12 84 -20 100 -8 15 -17 60 -19 100 -9 132 -38
153 -213 153 -78 0 -156 3 -172 6 -20 4 -35 0 -50 -13z"/>
  <path d="M14025 3654 c-60 -8 -112 -20 -116 -26 -4 -6 -30 -14 -58 -19 -28 -4
-58 -15 -67 -23 -8 -9 -27 -19 -42 -22 -15 -4 -45 -21 -67 -38 -22 -17 -60
-45 -84 -61 -84 -56 -231 -211 -231 -242 0 -5 -11 -20 -25 -33 -14 -13 -25
-34 -25 -46 0 -12 -7 -29 -15 -37 -7 -8 -17 -28 -21 -43 -4 -16 -13 -36 -20
-44 -7 -9 -16 -36 -20 -60 -4 -25 -14 -58 -23 -75 -24 -45 -24 -525 0 -570 9
-16 20 -48 23 -69 4 -21 13 -48 21 -60 7 -12 16 -35 20 -53 3 -17 13 -37 21
-44 8 -6 14 -17 14 -23 0 -29 119 -178 204 -255 22 -20 49 -45 60 -57 12 -11
29 -23 39 -27 9 -3 17 -11 17 -16 0 -5 12 -12 26 -15 14 -4 38 -15 53 -24 44
-29 65 -42 91 -53 14 -6 39 -17 55 -24 17 -8 52 -16 79 -20 27 -4 61 -14 75
-23 37 -25 421 -23 466 1 17 9 46 17 65 17 20 0 53 9 74 19 21 11 51 23 66 26
16 3 31 13 34 21 3 8 14 14 24 14 11 0 31 9 45 20 14 11 29 20 34 20 5 0 20
11 33 25 13 14 28 25 33 25 28 0 209 207 221 253 3 15 13 27 21 27 47 0 14 87
-39 101 -16 4 -36 15 -45 23 -9 8 -29 18 -44 22 -16 3 -31 13 -34 20 -3 8 -14
14 -25 14 -10 0 -29 11 -42 25 -26 28 -95 2 -96 -35 0 -8 -12 -28 -27 -43 -83
-86 -140 -138 -158 -143 -11 -4 -31 -15 -44 -25 -13 -11 -32 -19 -43 -19 -10
0 -29 -6 -41 -14 -28 -18 -247 -35 -319 -25 -29 4 -74 8 -99 8 -28 1 -51 7
-59 16 -7 8 -23 15 -36 15 -13 0 -35 11 -50 25 -15 14 -31 25 -36 25 -36 0
-218 186 -218 222 0 8 -9 27 -20 41 -11 14 -20 33 -20 44 -1 10 -9 36 -20 58
-50 103 -117 94 762 95 709 0 784 2 800 17 28 25 27 319 -2 400 -11 32 -20 71
-20 89 0 17 -9 43 -20 57 -11 14 -20 39 -20 56 0 20 -7 34 -20 41 -11 6 -20
18 -20 28 0 15 -16 42 -75 128 -22 32 -142 154 -151 154 -4 0 -17 10 -29 23
-48 48 -73 67 -88 67 -9 0 -19 5 -22 10 -9 14 -128 70 -149 70 -9 0 -29 6 -44
14 -34 17 -93 26 -207 32 -49 2 -108 6 -130 8 -22 2 -89 -3 -150 -10z m308
-378 c18 -8 50 -17 72 -20 22 -3 45 -12 51 -21 6 -8 21 -15 33 -15 12 0 32
-11 45 -25 13 -14 27 -25 31 -25 4 0 22 -15 39 -33 17 -18 39 -36 49 -40 9 -3
17 -13 17 -20 0 -8 11 -26 25 -41 14 -15 25 -34 25 -42 0 -9 7 -22 15 -30 9
-10 15 -34 15 -63 0 -34 6 -55 20 -71 55 -63 82 -60 -575 -60 -629 0 -614 -1
-580 44 8 11 15 37 15 57 0 21 6 44 14 51 7 8 17 29 21 47 4 18 13 35 20 37 7
3 16 16 19 29 8 30 162 175 187 175 11 0 27 9 36 20 13 15 30 20 69 20 37 0
59 6 75 20 30 25 211 29 262 6z"/>
  <path d="M3245 2265 c-5 -2 -71 -8 -145 -14 -76 -6 -148 -16 -165 -25 -17 -7
-56 -17 -87 -21 -31 -3 -62 -12 -68 -20 -6 -7 -40 -17 -75 -20 -36 -4 -70 -14
-76 -21 -6 -8 -24 -14 -40 -14 -18 0 -32 -7 -39 -20 -6 -11 -20 -20 -30 -20
-11 0 -20 -7 -20 -15 0 -9 -7 -18 -15 -21 -8 -3 -17 -14 -20 -25 -4 -10 -11
-19 -18 -19 -6 0 -52 -39 -102 -87 -50 -49 -135 -128 -190 -178 -54 -49 -108
-100 -120 -112 -12 -13 -27 -23 -34 -23 -6 0 -11 -7 -11 -15 0 -9 -8 -19 -17
-22 -10 -4 -34 -23 -53 -42 -20 -20 -82 -79 -139 -133 -162 -152 -184 -142
330 -143 384 0 429 -2 445 -17 13 -11 47 -19 104 -23 47 -4 96 -13 110 -20 14
-7 54 -16 90 -20 36 -4 81 -16 100 -26 19 -11 47 -19 61 -19 15 0 46 -9 70
-20 24 -11 55 -20 69 -20 14 0 35 -6 46 -14 11 -8 38 -18 60 -22 21 -4 50 -15
63 -25 13 -11 34 -19 46 -19 12 0 28 -6 34 -14 7 -8 30 -17 52 -21 22 -4 43
-13 45 -20 3 -7 21 -16 41 -20 23 -4 37 -13 40 -26 4 -13 14 -19 33 -19 15 0
33 -7 40 -15 7 -8 21 -15 32 -15 10 0 29 -11 42 -25 13 -14 32 -25 43 -25 11
0 28 -9 38 -20 10 -11 27 -20 37 -20 10 0 21 -6 24 -14 3 -8 16 -17 29 -20 14
-4 29 -15 35 -26 6 -11 17 -20 25 -20 8 0 23 -7 33 -15 45 -41 132 -105 140
-105 6 0 12 -7 16 -15 3 -8 11 -15 17 -15 6 0 21 -10 33 -22 33 -35 155 -142
171 -151 8 -4 15 -12 15 -18 0 -10 63 -73 98 -96 12 -8 22 -22 22 -29 0 -8 6
-14 13 -14 8 0 19 -11 25 -25 6 -14 15 -25 20 -25 4 0 26 -24 47 -52 65 -86
78 -98 101 -98 33 0 34 7 34 373 1 188 5 448 10 577 9 243 1 320 -36 343 -7 4
-15 20 -19 36 -3 16 -13 35 -21 42 -8 6 -14 18 -14 25 0 8 -9 22 -20 31 -11
10 -20 24 -20 31 0 8 -11 27 -25 44 -14 16 -25 36 -25 45 0 13 -12 31 -60 90
-6 7 -10 15 -10 19 0 4 -7 14 -15 23 -9 9 -54 58 -102 109 -47 50 -92 92 -100
92 -7 0 -16 7 -19 15 -3 8 -30 30 -59 50 -30 19 -57 40 -60 45 -3 6 -15 10
-26 10 -10 0 -19 5 -19 11 0 5 -15 16 -33 24 -19 8 -39 21 -47 29 -7 9 -20 16
-30 16 -9 0 -29 9 -43 20 -14 11 -36 20 -50 20 -13 0 -30 6 -36 14 -7 8 -27
18 -44 22 -17 3 -41 12 -52 19 -11 7 -40 16 -65 20 -25 4 -57 13 -72 21 -14 8
-88 18 -165 24 -76 5 -156 12 -178 15 -22 2 -44 2 -50 0z"/>
  <path d="M6586 2209 c-66 -5 -113 -13 -117 -21 -4 -6 -35 -15 -69 -19 -34 -4
-66 -13 -73 -22 -7 -8 -31 -17 -55 -20 -24 -3 -51 -12 -61 -21 -10 -9 -27 -16
-38 -16 -11 0 -31 -8 -44 -18 -13 -11 -36 -22 -51 -26 -16 -3 -28 -11 -28 -17
0 -5 -15 -17 -32 -25 -54 -25 -78 -40 -99 -63 -11 -11 -26 -21 -33 -21 -8 0
-16 -7 -20 -15 -3 -8 -11 -15 -18 -15 -7 0 -37 -23 -67 -51 -30 -28 -65 -58
-78 -66 -13 -8 -23 -19 -23 -25 0 -10 -99 -131 -111 -136 -5 -2 -9 -10 -9 -17
0 -8 -11 -26 -25 -41 -14 -15 -25 -33 -25 -41 0 -7 -7 -16 -15 -19 -8 -4 -15
-12 -15 -19 0 -8 -11 -27 -25 -43 -14 -17 -25 -35 -25 -42 0 -6 -9 -23 -20
-37 -11 -14 -20 -34 -20 -43 0 -10 -6 -20 -14 -23 -25 -10 -37 -98 -42 -321
-24 -992 -25 -966 17 -966 32 0 79 38 79 64 0 8 9 18 20 21 11 3 20 13 20 22
0 8 9 17 19 20 11 3 32 22 46 43 15 21 33 41 41 44 8 3 14 11 14 18 1 7 15 22
33 33 18 11 36 30 42 43 5 12 15 22 21 22 6 0 32 20 58 44 25 25 73 66 106 92
33 26 60 51 60 55 0 5 9 9 20 9 11 0 23 7 26 15 3 8 20 23 37 34 18 11 41 26
52 33 11 7 38 27 59 43 37 28 65 46 126 77 14 7 30 19 36 27 8 10 23 12 52 8
40 -5 42 -4 36 19 -5 19 -2 24 13 24 11 0 32 11 47 25 15 14 35 25 45 25 10 0
24 6 30 14 6 7 29 16 50 20 21 3 41 12 44 20 3 7 22 17 43 21 21 3 47 13 58
21 11 8 30 14 42 14 12 0 32 8 45 19 13 10 44 22 69 26 25 4 52 13 60 20 8 7
40 16 70 20 30 4 62 14 71 22 10 8 43 18 75 23 33 5 73 13 89 18 17 6 62 13
100 17 39 3 90 13 114 21 86 29 653 59 689 36 12 -8 33 -12 47 -10 14 3 67 1
118 -3 119 -12 147 -6 147 29 -1 27 -30 72 -48 72 -8 0 -276 259 -669 648 -68
67 -128 122 -132 122 -5 0 -14 7 -21 15 -7 8 -28 17 -49 21 -20 3 -46 13 -59
21 -13 8 -46 17 -75 20 -29 3 -59 12 -67 19 -8 7 -40 16 -70 20 -30 4 -64 13
-75 20 -42 27 -352 39 -569 23z"/>
</g>
</svg>