<?xml version="1.0" encoding="UTF-8"?>
<svg xmlns="http://www.w3.org/2000/svg" 
     viewBox="220 493 590 510"
     width="590" height="510">
<defs>
  <linearGradient id="swooshGrad" gradientUnits="userSpaceOnUse"
    x1="2600" y1="6500" x2="5500" y2="8500">
    <stop offset="0%" stop-color="#ffffff"/>
    <stop offset="30%" stop-color="#ffffff"/>
    <stop offset="60%" stop-color="#ffffff"/>
    <stop offset="100%" stop-color="#ffffff"/>
  </linearGradient>
</defs>
<!-- Dark green M letterform + MEXPATH text -->
<g transform="translate(0,1536) scale(0.1,-0.1)" fill="#ffffff" stroke="none">
  <path d="M6746 10304 c-95 -17 -219 -74 -301 -138 -89 -69 -152 -145 -440
-531 -144 -192 -290 -384 -324 -425 -98 -117 -272 -300 -285 -300 -6 0 -52 55
-101 123 -218 301 -351 470 -415 530 l-69 65 -83 41 c-104 52 -193 71 -334 71
l-111 0 -77 -20 c-146 -37 -264 -120 -347 -243 -85 -127 -276 -542 -420 -913
-70 -180 -201 -555 -196 -560 2 -2 41 10 88 27 212 78 598 191 964 284 61 16
111 29 113 31 2 1 -7 202 -19 447 -12 245 -18 462 -15 482 4 21 18 48 31 61
l24 24 36 0 c51 0 85 -21 150 -92 55 -61 281 -358 455 -598 45 -63 84 -117 86
-119 6 -7 129 31 244 76 382 150 636 315 852 551 84 92 258 308 418 520 168
224 188 242 263 242 46 0 75 -24 88 -72 14 -54 5 -107 -38 -232 -143 -415
-305 -689 -561 -950 -304 -310 -662 -531 -1303 -806 -425 -183 -604 -284 -717
-405 -70 -74 -104 -135 -121 -213 -14 -67 -6 -122 29 -192 49 -97 152 -176
279 -214 l55 -16 370 0 371 0 -56 24 c-103 42 -195 120 -236 201 l-26 50 -5
71 -4 72 24 53 c56 121 169 211 493 394 414 233 623 362 802 497 249 188 392
342 480 522 15 31 33 56 40 56 l13 0 0 -970 0 -970 300 0 300 0 -2 1523 -3
1522 -18 60 c-10 33 -28 80 -40 104 -103 206 -392 311 -701 255z"/>
  <path d="M2320 5810 l0 -370 75 0 75 0 0 215 0 215 13 0 c12 0 39 -41 168
-252 l60 -98 42 0 42 0 105 175 c58 96 111 174 118 175 l12 0 1 -67 c1 -38 3
-131 5 -208 2 -77 4 -144 4 -148 0 -4 33 -7 73 -5 l72 3 3 368 2 367 -77 0
-78 0 -26 -43 c-14 -23 -74 -124 -134 -224 -59 -101 -114 -183 -121 -183 -7 0
-52 66 -101 147 -48 81 -108 181 -133 223 l-46 75 -77 3 -77 3 0 -371z"/>
  <path d="M3422 5813 l3 -368 285 0 285 0 3 68 3 67 -206 0 -205 0 0 85 0 85
170 0 170 0 0 65 0 65 -170 0 -170 0 0 85 0 85 200 0 200 0 0 65 0 65 -285 0
-285 0 2 -367z"/>
  <path d="M4178 6113 c27 -38 83 -115 125 -172 42 -57 77 -111 77 -120 0 -20
-5 -27 -147 -218 -62 -84 -113 -155 -113 -158 0 -3 41 -4 92 -3 l92 3 88 120
c48 66 93 121 101 123 7 1 52 -52 102 -123 l89 -125 94 0 94 0 -17 27 c-10 15
-71 98 -137 186 -65 87 -118 163 -118 170 0 7 56 88 125 181 69 93 125 171
125 173 0 1 -39 3 -88 3 l-87 0 -85 -115 c-47 -63 -90 -115 -97 -115 -10 0
-43 43 -146 190 l-28 40 -95 0 -94 0 48 -67z"/>
  <path d="M5020 5810 l0 -371 83 3 82 3 3 106 3 106 132 6 132 5 49 18 50 17
41 43 42 43 13 46 c17 59 8 163 -17 212 -26 49 -91 99 -155 118 l-52 15 -203
0 -203 0 0 -370z m400 227 c19 -7 44 -27 57 -46 41 -61 23 -145 -39 -177 l-32
-17 -108 -5 -108 -5 0 132 0 131 98 -1 c53 0 113 -5 132 -12z"/>
  <path d="M5971 6118 c-16 -35 -41 -92 -56 -128 -16 -36 -43 -96 -60 -135 -18
-38 -63 -140 -100 -225 -37 -85 -71 -162 -75 -170 l-8 -16 85 1 85 0 32 76 31
77 57 4 c31 2 110 2 176 0 l121 -4 28 -72 29 -71 40 -7 c52 -9 134 -10 134 -1
0 4 -73 170 -161 370 l-162 363 -84 0 -84 0 -28 -62z m172 -240 c26 -62 47
-121 47 -130 l0 -18 -110 0 c-65 0 -110 4 -110 10 0 12 41 119 73 193 14 31
32 57 39 57 8 0 34 -48 61 -112z"/>
  <path d="M6478 6115 l4 -65 119 0 119 0 0 -305 0 -305 80 0 80 0 0 305 0 305
125 0 125 0 0 65 0 65 -327 0 -328 0 3 -65z"/>
  <path d="M7292 5813 l3 -368 83 -3 82 -3 0 151 0 150 180 0 180 0 0 -144 0
-144 16 -6 c9 -3 47 -6 85 -6 l69 0 0 370 0 370 -85 0 -85 0 0 -150 0 -150
-180 0 -180 0 0 150 0 150 -85 0 -85 0 2 -367z"/>
</g>
<!-- Light green swoosh/path accent with gradient -->
<g transform="translate(0,1536) scale(0.1,-0.1)" fill="url(#swooshGrad)" stroke="none">
  <path d="M5931 8628 c-330 -167 -648 -271 -1446 -473 -769 -194 -967 -256
-1249 -389 -295 -139 -478 -309 -537 -499 -42 -133 -11 -318 66 -402 l31 -35
302 0 302 0 0 24 c0 14 -5 28 -10 31 -32 20 -64 112 -64 185 -1 109 38 186
153 300 196 194 391 292 1139 571 609 226 890 354 1192 539 193 118 325 226
268 218 -7 -1 -73 -32 -147 -70z"/>
</g>
</svg>